<mxfile host="65bd71144e">
    <diagram id="u7zgBwtIAptATGMnYBnp" name="Page-1">
        <mxGraphModel dx="1414" dy="821" grid="1" gridSize="10" guides="1" tooltips="1" connect="1" arrows="1" fold="1" page="1" pageScale="1" pageWidth="1169" pageHeight="827" math="0" shadow="0">
            <root>
                <mxCell id="0"/>
                <mxCell id="1" parent="0"/>
                <mxCell id="2" value="Engineering Foundation" style="rounded=1;whiteSpace=wrap;html=1;" vertex="1" parent="1">
                    <mxGeometry x="110" y="160" width="320" height="150" as="geometry"/>
                </mxCell>
                <mxCell id="3" value="IntroCS/Programming" style="rounded=1;whiteSpace=wrap;html=1;" vertex="1" parent="1">
                    <mxGeometry x="690" y="160" width="320" height="150" as="geometry"/>
                </mxCell>
                <mxCell id="4" value="Java" style="rounded=1;whiteSpace=wrap;html=1;" vertex="1" parent="1">
                    <mxGeometry x="730" y="260" width="60" height="40" as="geometry"/>
                </mxCell>
                <mxCell id="5" value="Python" style="rounded=1;whiteSpace=wrap;html=1;" vertex="1" parent="1">
                    <mxGeometry x="900" y="260" width="60" height="40" as="geometry"/>
                </mxCell>
                <mxCell id="6" value="C" style="rounded=1;whiteSpace=wrap;html=1;" vertex="1" parent="1">
                    <mxGeometry x="820" y="260" width="60" height="40" as="geometry"/>
                </mxCell>
                <mxCell id="7" value="Data Structure and Algorithms" style="rounded=1;whiteSpace=wrap;html=1;" vertex="1" parent="1">
                    <mxGeometry x="584" y="370" width="120" height="60" as="geometry"/>
                </mxCell>
                <mxCell id="8" value="AI" style="rounded=1;whiteSpace=wrap;html=1;" vertex="1" parent="1">
                    <mxGeometry x="586" y="461" width="120" height="60" as="geometry"/>
                </mxCell>
                <mxCell id="9" value="Computer Systems" style="rounded=1;whiteSpace=wrap;html=1;" vertex="1" parent="1">
                    <mxGeometry x="778" y="368" width="120" height="60" as="geometry"/>
                </mxCell>
                <mxCell id="10" value="Intro&amp;nbsp; Computer Systems&lt;br&gt;" style="rounded=1;whiteSpace=wrap;html=1;" vertex="1" parent="1">
                    <mxGeometry x="900" y="180" width="60" height="40" as="geometry"/>
                </mxCell>
                <mxCell id="11" value="Software Developments" style="rounded=1;whiteSpace=wrap;html=1;" vertex="1" parent="1">
                    <mxGeometry x="960" y="368" width="120" height="60" as="geometry"/>
                </mxCell>
            </root>
        </mxGraphModel>
    </diagram>
</mxfile>